<svg width="32" height="32" viewBox="0 0 32 32" fill="none" xmlns="http://www.w3.org/2000/svg">
<path d="M18.528 11.5327C18.8222 11.2411 18.8243 10.7662 18.5327 10.472C18.2411 10.1778 17.7662 10.1757 17.472 10.4673L15.6773 12.2461C15.0013 12.916 14.4489 13.4636 14.0571 13.9515C13.6496 14.4588 13.3547 14.9737 13.2759 15.5918C13.2414 15.8629 13.2414 16.1371 13.2759 16.4082C13.3547 17.0263 13.6496 17.5412 14.0571 18.0485C14.4489 18.5364 15.0013 19.084 15.6773 19.7539L17.472 21.5327C17.7662 21.8243 18.2411 21.8222 18.5327 21.528C18.8243 21.2338 18.8222 20.7589 18.528 20.4673L16.765 18.72C16.0495 18.0109 15.5587 17.5228 15.2266 17.1093C14.904 16.7076 14.7933 16.4496 14.7639 16.2185C14.7454 16.0734 14.7454 15.9266 14.7639 15.7815C14.7933 15.5504 14.904 15.2924 15.2266 14.8907C15.5587 14.4772 16.0495 13.9891 16.765 13.28L18.528 11.5327Z" fill="#E3E3E3"/>
<circle cx="16" cy="16" r="16" fill="black" fill-opacity="0.13"/>
</svg>
