<svg width="42" height="42" viewBox="0 0 42 42" fill="none" xmlns="http://www.w3.org/2000/svg">
<circle cx="21" cy="21" r="21" fill="#E6E6E6"/>
<path d="M24.3601 15.3406C22.9889 14.5588 21.9238 13.9515 21.0587 13.5575C20.1905 13.162 19.4368 12.9387 18.7039 13.0148C17.5408 13.1355 16.4819 13.7382 15.7919 14.6761C15.356 15.2686 15.1745 16.029 15.0871 16.9704C15 17.908 15 19.1233 15 20.6862V20.7513C15 22.3142 15 23.5295 15.0871 24.4671C15.1745 25.4085 15.356 26.1689 15.7919 26.7613C16.4819 27.6993 17.5408 28.302 18.7039 28.4227C19.4368 28.4988 20.1905 28.2754 21.0587 27.88C21.9238 27.486 22.9889 26.8787 24.3601 26.0969L24.4157 26.0651C25.7868 25.2834 26.852 24.6761 27.6301 24.1331C28.4104 23.5887 28.9856 23.0544 29.2872 22.3854C29.7654 21.3247 29.7654 20.1128 29.2872 19.0521C28.9856 18.3831 28.4104 17.8488 27.6301 17.3043C26.852 16.7614 25.7868 16.1541 24.4157 15.3723L24.3601 15.3406Z" fill="#555555"/>
</svg>
